<?xml version="1.0" encoding="utf-8"?>
<!-- Generator: Adobe Illustrator 21.1.0, SVG Export Plug-In . SVG Version: 6.00 Build 0)  -->
<svg version="1.1" id="Layer_1" xmlns="http://www.w3.org/2000/svg" xmlns:xlink="http://www.w3.org/1999/xlink" x="0px" y="0px"
	 viewBox="0 0 121.9 121.9" style="enable-background:new 0 0 121.9 121.9;" xml:space="preserve">
<style type="text/css">
	.st0{fill:#FF6C00;}
</style>
<g>
	<path class="st0" d="M61,119.7c-32,0-58-26-58-58s26-58,58-58c32,0,58,26,58,58S93,119.7,61,119.7z M61,7.9
		C31.3,7.9,7.2,32,7.2,61.7s24.1,53.8,53.8,53.8c29.7,0,53.8-24.1,53.8-53.8S90.7,7.9,61,7.9z"/>
	<path class="st0" d="M85.6,79.5c-0.1,0-0.2,0-0.3,0c-1.1-0.2-2-1.2-1.8-2.4c0.7-5,1-10.2,1-15.4C84.6,32.5,73.8,7.9,61,7.9
		c-6.9,0-13.7,7.5-18.2,20c-0.4,1.1-1.6,1.7-2.7,1.3c-1.1-0.4-1.7-1.6-1.3-2.7C44.1,12,52.1,3.7,61,3.7c15.6,0,27.7,25.5,27.7,58
		c0,5.4-0.4,10.8-1,16C87.6,78.7,86.7,79.5,85.6,79.5z"/>
	<path class="st0" d="M61,119.7c-15.6,0-27.7-25.5-27.7-58c0-5.6,0.4-11.1,1.1-16.5c0.2-1.1,1.2-1.9,2.4-1.8
		c1.1,0.2,1.9,1.2,1.8,2.4c-0.7,5.1-1.1,10.5-1.1,15.9c0,29.2,10.8,53.8,23.6,53.8c6.8,0,13.6-7.4,18.1-19.7
		c0.4-1.1,1.6-1.6,2.7-1.2c1.1,0.4,1.6,1.6,1.3,2.7C77.8,111.5,69.8,119.7,61,119.7z"/>
	<path class="st0" d="M110.8,89.2H93.6c-1.2,0-2.1-0.9-2.1-2.1c0-1.2,0.9-2.1,2.1-2.1h17.2c1.2,0,2.1,0.9,2.1,2.1
		C112.9,88.3,111.9,89.2,110.8,89.2z"/>
	<path class="st0" d="M74.1,89.2H11.2c-1.2,0-2.1-0.9-2.1-2.1c0-1.2,0.9-2.1,2.1-2.1h62.8c1.2,0,2.1,0.9,2.1,2.1
		C76.2,88.3,75.2,89.2,74.1,89.2z"/>
	<path class="st0" d="M116.9,63.8H5.1c-1.2,0-2.1-0.9-2.1-2.1c0-1.2,0.9-2.1,2.1-2.1h111.8c1.2,0,2.1,0.9,2.1,2.1
		C119,62.8,118.1,63.8,116.9,63.8z"/>
	<path class="st0" d="M110.8,38.3H47.6c-1.2,0-2.1-0.9-2.1-2.1c0-1.2,0.9-2.1,2.1-2.1h63.2c1.2,0,2.1,0.9,2.1,2.1
		C112.9,37.4,111.9,38.3,110.8,38.3z"/>
	<path class="st0" d="M28.7,38.3H11.2c-1.2,0-2.1-0.9-2.1-2.1c0-1.2,0.9-2.1,2.1-2.1h17.5c1.2,0,2.1,0.9,2.1,2.1
		C30.8,37.4,29.9,38.3,28.7,38.3z"/>
	<path class="st0" d="M38.2,47.8c-6.4,0-11.5-5.2-11.5-11.5c0-6.4,5.2-11.5,11.5-11.5c6.4,0,11.5,5.2,11.5,11.5
		C49.7,42.6,44.5,47.8,38.2,47.8z M38.2,28.9c-4,0-7.3,3.3-7.3,7.3c0,4,3.3,7.3,7.3,7.3c4,0,7.3-3.3,7.3-7.3
		C45.5,32.2,42.2,28.9,38.2,28.9z"/>
	<path class="st0" d="M83.8,99C77.3,99,72,93.7,72,87.1c0-6.5,5.3-11.9,11.9-11.9c6.5,0,11.9,5.3,11.9,11.9
		C95.7,93.7,90.4,99,83.8,99z M83.8,79.5c-4.2,0-7.7,3.4-7.7,7.7c0,4.2,3.4,7.7,7.7,7.7s7.7-3.4,7.7-7.7
		C91.5,82.9,88.1,79.5,83.8,79.5z"/>
</g>
</svg>
