<?xml version="1.0" encoding="utf-8"?>
<!-- Generator: Adobe Illustrator 21.1.0, SVG Export Plug-In . SVG Version: 6.00 Build 0)  -->
<svg version="1.1" id="Layer_1" xmlns="http://www.w3.org/2000/svg" xmlns:xlink="http://www.w3.org/1999/xlink" x="0px" y="0px"
	 viewBox="0 0 121.9 121.9" style="enable-background:new 0 0 121.9 121.9;" xml:space="preserve">
<style type="text/css">
	.st0{fill:#FF6C00;}
</style>
<g>
	<path class="st0" d="M113.1,73.2H8c-1.1,0-2-0.9-2-2v-64c0-1.1,0.9-2,2-2h105.2c1.1,0,2,0.9,2,2v64
		C115.1,72.4,114.2,73.2,113.1,73.2z M9.9,69.3h101.2V9.2H9.9V69.3z"/>
	<path class="st0" d="M113.1,86H8c-1.1,0-2-0.9-2-2V71.3c0-1.1,0.9-2,2-2h105.2c1.1,0,2,0.9,2,2v12.8C115.1,85.2,114.2,86,113.1,86z
		 M9.9,82.1h101.2v-8.9H9.9V82.1z"/>
	<path class="st0" d="M69.5,101.1H51.6c-1.1,0-2-0.9-2-2V84.1c0-1.1,0.9-2,2-2h17.8c1.1,0,2,0.9,2,2v15.1
		C71.4,100.2,70.6,101.1,69.5,101.1z M53.6,97.2h13.9V86H53.6V97.2z"/>
	<path class="st0" d="M75.7,112.7H45.4c-0.7,0-1.3-0.4-1.7-1c-0.4-0.6-0.4-1.3,0-1.9l6.2-11.6c0.3-0.6,1-1,1.7-1h17.8
		c0.7,0,1.4,0.4,1.7,1l6.2,11.6c0.3,0.6,0.3,1.4,0,1.9C77.1,112.4,76.4,112.7,75.7,112.7z M48.7,108.8h23.7l-4.1-7.6H52.8
		L48.7,108.8z"/>
	<g>
		<path class="st0" d="M45.2,56c-0.5,0-1-0.2-1.4-0.6L29,40.7c-0.4-0.4-0.6-0.9-0.6-1.4c0-0.5,0.2-1,0.6-1.4l14.8-14.8
			c0.8-0.8,2-0.8,2.8,0c0.8,0.8,0.8,2,0,2.8L33.2,39.3l13.4,13.4c0.8,0.8,0.8,2,0,2.8C46.2,55.8,45.7,56,45.2,56z"/>
		<path class="st0" d="M75.9,56c-0.5,0-1-0.2-1.4-0.6c-0.8-0.8-0.8-2,0-2.8l13.4-13.4L74.5,25.9c-0.8-0.8-0.8-2,0-2.8
			c0.8-0.8,2-0.8,2.8,0l14.8,14.8c0.4,0.4,0.6,0.9,0.6,1.4c0,0.5-0.2,1-0.6,1.4L77.3,55.4C76.9,55.8,76.4,56,75.9,56z"/>
		<path class="st0" d="M52.6,62.4c-0.2,0-0.4,0-0.6-0.1c-1-0.3-1.6-1.5-1.2-2.5l14.3-42.4c0.3-1,1.5-1.6,2.5-1.2
			c1,0.3,1.6,1.5,1.2,2.5L54.5,61.1C54.2,61.9,53.4,62.4,52.6,62.4z"/>
	</g>
</g>
</svg>
