<?xml version="1.0" encoding="utf-8"?>
<!-- Generator: Adobe Illustrator 21.1.0, SVG Export Plug-In . SVG Version: 6.00 Build 0)  -->
<svg version="1.1"
	 id="Layer_1" image-rendering="optimizeQuality" text-rendering="geometricPrecision" shape-rendering="geometricPrecision"
	 xmlns="http://www.w3.org/2000/svg" xmlns:xlink="http://www.w3.org/1999/xlink" x="0px" y="0px" viewBox="0 0 512 512"
	 style="enable-background:new 0 0 512 512;" xml:space="preserve">
<style type="text/css">
	.st0{fill:#FF6C00;}
</style>
<path class="st0" d="M256,0c70.7,0,134.7,28.7,181,75c46.3,46.3,75,110.3,75,181c0,70.7-28.7,134.7-75,181
	c-46.3,46.3-110.3,75-181,75s-134.7-28.7-181-75C28.7,390.7,0,326.7,0,256S28.6,121.3,75,75C121.3,28.7,185.3,0,256,0z M237.7,265.4
	c-5-4.4-11.3-8.3-12.1-17.5l-0.5,0c-1.2,0-2.4-0.3-3.6-0.9c-1.8-1-3-2.8-3.9-4.7c-1.8-4.1-3.2-15,1.3-18.1l-0.9-0.6l-0.1-1.2
	c-0.2-2.2-0.2-4.8-0.3-7.6c-0.2-10.2-0.4-22.6-8.6-25.1l-3.5-1.1l2.3-2.9c6.6-8.2,13.6-15.4,20.6-20.9c7.9-6.2,15.9-10.4,23.8-11.6
	c8.1-1.2,15.9,0.6,23.2,6.5c2.1,1.7,4.2,3.8,6.2,6.2c7.7,0.7,14,4.9,18.5,10.8c2.7,3.6,4.7,7.7,6,12.2c1.3,4.4,1.9,9.1,1.6,13.8
	c-0.4,8.3-3.5,16.5-9.6,22.4c1.1,0,2.1,0.3,3,0.8c3.4,1.8,3.5,5.8,2.6,9.1c-0.9,2.8-2,6-3.1,8.7c-1.3,3.7-3.2,4.4-6.9,4
	c-0.2,9-6.7,12.6-12.3,17.9c13.7,25.5,71.7,19.3,71.7,70H165.8C165.8,285,222.5,292,237.7,265.4L237.7,265.4L237.7,265.4z
	 M146.5,268.3c-0.8-0.8-1.5-1.7-2.1-2.6c-1.6-2.1-3-4.4-4.4-6.6l-7-11.1c-2.7-3.9-4.1-7.4-4.1-10.2c0-2.8,1.6-6.4,4.8-7.3
	c-0.3-4.2-0.4-8.4-0.4-12.7c0-2.5,0.1-5,0.1-7.5c0.1-1.6,0.4-3.1,0.8-4.6c1.9-6.3,6.2-11.7,11.9-15.1c2-1.3,4.2-2.3,6.4-3.1
	c4.1-1.5,2.1-7.8,6.6-7.8c10.5-0.3,27.7,8.7,34.4,16c4.3,4.7,6.7,10.8,6.9,17.2l-0.4,18.3c1.9,0.5,3.3,1.9,3.8,3.8
	c0.6,2.3,0,5.3-2,9.7c0,0.1-0.1,0.1-0.1,0.3l-8,13.2c-1.8,3-3.7,6-5.8,8.8c-2.5,3.3-4.5,2.7-2.4,5.9c1.8,2.5,3.9,4.4,6.1,6.1
	c-16.5,8.1-31.4,19.2-34.6,43.4H94.7c0-41.8,37.2-28.5,52.5-49.5C148.9,270.2,148.4,270.4,146.5,268.3L146.5,268.3z M329.3,270.2
	c-0.7-0.8-1.4-1.6-2-2.5c-1.5-2.1-2.9-4.2-4.3-6.4l-6.8-10.8c-1.6-2.4-2.8-4.6-3.4-6.6c0.5-1.3,0.9-2.7,1.4-4.1
	c0.2-0.5,0.4-1,0.5-1.5c0.4-1.3,0.6-2.7,0.8-4.1c0.4-0.3,0.9-0.4,1.4-0.6c-0.3-4.1-0.4-8.2-0.4-12.2c0-1.3,0-2.5,0-3.8
	c1.3-3.8,2.1-7.7,2.4-11.7c2.2-4.5,5.7-8.3,10-10.9c2-1.2,4-2.2,6.2-3c3.9-1.5,2-7.5,6.4-7.6c10.1-0.3,26.7,8.4,33.2,15.4
	c4.1,4.6,6.5,10.5,6.6,16.6l-0.4,17.7c1.8,0.4,3.2,1.8,3.6,3.6c0.5,2.2,0,5.1-1.9,9.3c0,0.1-0.1,0.1-0.1,0.3l-7.7,12.7
	c-1.8,2.9-3.5,5.8-5.6,8.5c-2.4,3.2-4.4,2.6-2.3,5.7c14.8,20.3,50.4,7.5,50.4,47.8h-54.9c-3.3-24.7-18.9-35.9-35.9-44
	c1.3-1.1,2.4-2.3,3.4-3.7C331.6,272,331.2,272.2,329.3,270.2z M275,35.1v38.1h-33.4V34.8c-55.5,3.5-105.5,27.5-142.4,64.5
	c-37.6,37.6-61.8,88.7-64.6,145.4h45.2V278H35.4c5.2,52.5,28.6,99.5,63.8,134.8c37,37,86.9,60.9,142.4,64.5v-32.6H275v32.3
	c53.6-4.6,101.8-28.2,137.7-64.1c35.3-35.3,58.7-82.4,63.9-134.8h-39.7v-33.3h40.5c-2.9-56.7-27-107.8-64.6-145.4
	C376.8,63.3,328.6,39.7,275,35.1L275,35.1z"/>
</svg>
