<?xml version="1.0" encoding="utf-8"?>
<!-- Generator: Adobe Illustrator 21.1.0, SVG Export Plug-In . SVG Version: 6.00 Build 0)  -->
<svg version="1.1" id="Layer_1" xmlns="http://www.w3.org/2000/svg" xmlns:xlink="http://www.w3.org/1999/xlink" x="0px" y="0px"
	 viewBox="0 0 121.9 121.9" style="enable-background:new 0 0 121.9 121.9;" xml:space="preserve">
<style type="text/css">
	.st0{fill:#FF6C00;}
</style>
<g>
	<path class="st0" d="M108.5,89.5c0.2,0,0.4,0,0.5,0.1c1.1-2,2.2-4.1,3.1-6.3c0,0,0-0.1,0.1-0.1c1.4-3.3,2.5-6.8,3.2-10.4
		c0.6-2.8,0.9-5.7,1-8.6H99.5c-0.3,8.6-2.9,17-7.6,25.4L108.5,89.5L108.5,89.5z M105.5,94.9h-17c-5.2,7.5-12.1,14.9-20.8,22.2
		c1.4-0.2,2.7-0.4,4.1-0.7c3.6-0.7,7.2-1.8,10.5-3.3l0,0c3.4-1.5,6.6-3.2,9.6-5.2c3-2,5.7-4.3,8.3-6.8l0,0l0,0
		C102.1,99.2,103.9,97.1,105.5,94.9L105.5,94.9z M53.2,117.1c-8.7-7.3-15.7-14.7-20.8-22.2h-17c1.6,2.2,3.4,4.3,5.4,6.2l0,0v0
		c2.5,2.5,5.3,4.8,8.3,6.8c3,2,6.2,3.7,9.6,5.2c0,0,0.1,0,0.1,0.1c3.3,1.4,6.8,2.5,10.4,3.2C50.5,116.7,51.8,116.9,53.2,117.1
		L53.2,117.1z M11.9,89.5H29c-4.8-8.3-7.3-16.8-7.6-25.4H4.4c0.1,2.9,0.5,5.8,1,8.6c0.7,3.6,1.8,7.2,3.3,10.5l0,0
		C9.7,85.4,10.7,87.5,11.9,89.5L11.9,89.5z M4.4,58.7h17c0.6-8.4,3.4-16.9,8.4-25.4h-18c-1.1,2-2.2,4.1-3.1,6.2c0,0,0,0.1-0.1,0.1
		c-1.4,3.3-2.5,6.8-3.2,10.4C4.9,52.9,4.6,55.8,4.4,58.7L4.4,58.7z M15.4,28h17.9c5.1-7.4,11.9-14.8,20.3-22.2
		c-1.5,0.2-3,0.4-4.4,0.7C45.5,7.2,42,8.3,38.6,9.7l0,0C35.2,11.2,32,13,29,14.9c-3,2-5.7,4.3-8.3,6.8l0,0l0,0
		C18.8,23.7,17,25.8,15.4,28L15.4,28z M67.3,5.8c8.4,7.4,15.2,14.9,20.3,22.2h17.9c-1.6-2.2-3.4-4.3-5.4-6.2l0,0l0,0
		c-2.5-2.5-5.3-4.8-8.3-6.8c-3-2-6.2-3.7-9.6-5.2c0,0-0.1,0-0.1-0.1c-3.3-1.4-6.8-2.5-10.4-3.2C70.3,6.2,68.8,6,67.3,5.8L67.3,5.8z
		 M109,33.4H91c5,8.5,7.8,17,8.4,25.4h17c-0.1-2.9-0.5-5.8-1-8.6c-0.7-3.6-1.8-7.2-3.3-10.5l0,0C111.2,37.4,110.2,35.4,109,33.4
		L109,33.4z M48.1,1.2c4-0.8,8.1-1.2,12.3-1.2s8.3,0.4,12.3,1.2c3.9,0.8,7.8,2,11.5,3.5c0.1,0,0.1,0,0.1,0.1
		c3.7,1.6,7.2,3.5,10.5,5.7c3.3,2.2,6.3,4.7,9.1,7.5c2.8,2.8,5.3,5.8,7.5,9.1c2.2,3.3,4.1,6.8,5.7,10.5l0,0l0,0
		c1.6,3.8,2.8,7.6,3.6,11.6c0.8,4,1.2,8.1,1.2,12.3s-0.4,8.3-1.2,12.3c-0.8,3.9-2,7.8-3.5,11.5c0,0.1,0,0.1-0.1,0.1
		c-1.6,3.7-3.5,7.2-5.7,10.5c-2.2,3.3-4.7,6.3-7.5,9.1c-2.8,2.8-5.8,5.3-9.1,7.5c-3.3,2.2-6.8,4.1-10.5,5.7l0,0l0,0
		c-3.8,1.6-7.6,2.8-11.6,3.6c-4,0.8-8.1,1.2-12.3,1.2s-8.3-0.4-12.3-1.2c-3.9-0.8-7.8-2-11.5-3.5c0,0-0.1,0-0.1-0.1
		c-3.7-1.6-7.2-3.5-10.5-5.7c-3.3-2.2-6.3-4.7-9.1-7.5c-2.8-2.8-5.3-5.8-7.5-9.1c-2.2-3.3-4.1-6.8-5.7-10.5l0,0l0,0
		C2.2,81.6,1,77.8,0.2,73.8c-0.8-4-1.2-8.1-1.2-12.3c0-4.2,0.4-8.3,1.2-12.3c0.8-3.9,2-7.8,3.5-11.5c0,0,0-0.1,0.1-0.1
		c1.6-3.7,3.5-7.2,5.7-10.5c2.2-3.3,4.7-6.3,7.5-9.1c2.8-2.8,5.8-5.3,9.1-7.5c3.3-2.2,6.8-4.1,10.5-5.7l0,0l0,0
		C40.3,3.2,44.1,2,48.1,1.2L48.1,1.2z M63.1,9.3V28H81C76.3,21.8,70.3,15.6,63.1,9.3L63.1,9.3z M63.1,33.4v25.4h30.9
		c-0.7-8.3-3.8-16.8-9.3-25.4H63.1L63.1,33.4z M63.1,64.1v25.4h22.5c5.3-8.4,8.2-16.9,8.5-25.4H63.1L63.1,64.1z M63.1,94.9v19
		c7.6-6.3,13.9-12.6,18.7-19L63.1,94.9L63.1,94.9z M57.7,113.8v-19H39C43.8,101.2,50.1,107.6,57.7,113.8L57.7,113.8z M57.7,89.5
		V64.1h-31c0.3,8.5,3.2,17,8.5,25.4L57.7,89.5L57.7,89.5z M57.7,58.7V33.4H36.1c-5.5,8.6-8.6,17-9.3,25.4H57.7L57.7,58.7z M57.7,28
		V9.3C50.5,15.6,44.6,21.8,39.9,28H57.7L57.7,28z"/>
</g>
</svg>
