<?xml version="1.0" encoding="utf-8"?>
<!-- Generator: Adobe Illustrator 21.1.0, SVG Export Plug-In . SVG Version: 6.00 Build 0)  -->
<svg version="1.1" id="Layer_1" xmlns="http://www.w3.org/2000/svg" xmlns:xlink="http://www.w3.org/1999/xlink" x="0px" y="0px"
	 viewBox="0 0 121.9 121.9" style="enable-background:new 0 0 121.9 121.9;" xml:space="preserve">
<style type="text/css">
	.st0{fill:#FF6C00;}
</style>
<g>
	<path class="st0" d="M42.5,58.4c0-1,0.8-1.8,3-1.8c1.4,0,2.9,0.4,4.4,1.2l1.1-2.8c-1.5-0.9-3.5-1.4-5.5-1.4c-4.5,0-6.6,2.2-6.6,4.9
		c0,5.9,9.2,3.8,9.2,6.8c0,1-0.9,1.7-3,1.7c-1.9,0-3.9-0.7-5.2-1.6l-1.2,2.7C40,69.3,42.5,70,45,70c4.5,0,6.7-2.3,6.7-4.9
		C51.7,59.3,42.5,61.3,42.5,58.4z"/>
	<polygon class="st0" points="66.4,66.8 57.8,66.8 57.8,63.2 65.1,63.2 65.1,60.3 57.8,60.3 57.8,56.9 66.1,56.9 66.1,54 54.2,54 
		54.2,69.7 66.4,69.7 	"/>
	<path class="st0" d="M76.9,70c5,0,8.6-3.4,8.6-8.1c0-4.7-3.7-8.1-8.6-8.1c-5,0-8.6,3.5-8.6,8.1S71.9,70,76.9,70z M76.9,56.8
		c2.8,0,4.9,2,4.9,5c0,3-2.1,5-4.9,5s-4.9-2-4.9-5C72,58.9,74.1,56.8,76.9,56.8z"/>
	<path class="st0" d="M122,59.1h-7.5C113.5,31,90.8,8.3,62.6,7.4v-7.6h-3.8v7.6C31,8.6,8.5,31.1,7.5,59.1H0v3.8h7.5
		C7.9,75,12.4,86.1,19.6,94.9L4.9,107.5c-1.5,1.3-1.9,3.4-0.7,4.6l7,7c1.2,1.2,3.3,0.8,4.6-0.7l12.7-14.9c8.5,6.5,19,10.6,30.4,11
		v7.5h3.8v-7.5c28.2-0.8,50.9-23.5,51.9-51.6h7.5V59.1z M62.6,110.7v-7.4h-3.8v7.4c-10.5-0.4-20.1-4.1-28-10.1l9-10.5
		c6,4.4,13.4,7,21.4,7c20,0,36.2-16.2,36.2-36.2c0-20-16.2-36.2-36.2-36.2c-20,0-36.2,16.2-36.2,36.2c0,8.5,3,16.4,8,22.6l-10.6,9
		c-6.7-8.1-10.8-18.4-11.3-29.7h7.4v-3.8h-7.4c1-25.9,21.8-46.8,47.6-47.9v7.3h3.8v-7.3C88.7,12,109.8,33,110.7,59.1h-7.4v3.8h7.4
		C109.8,88.9,88.7,109.9,62.6,110.7z M31.6,60.9c0-16.4,13.3-29.7,29.7-29.7S91,44.5,91,60.9c0,16.4-13.3,29.7-29.7,29.7
		S31.6,77.3,31.6,60.9z"/>
</g>
</svg>
