<?xml version="1.0" encoding="utf-8"?>
<!-- Generator: Adobe Illustrator 21.1.0, SVG Export Plug-In . SVG Version: 6.00 Build 0)  -->
<svg version="1.1" id="Layer_1" xmlns="http://www.w3.org/2000/svg" xmlns:xlink="http://www.w3.org/1999/xlink" x="0px" y="0px"
	 viewBox="0 0 121.9 121.9" style="enable-background:new 0 0 121.9 121.9;" xml:space="preserve">
<style type="text/css">
	.st0{fill:#FF6C00;}
</style>
<g>
	<path class="st0" d="M60.5,2C27.6,2,1,28.6,1,61.5S27.6,121,60.5,121S120,94.4,120,61.5S93.4,2,60.5,2L60.5,2z M104,37.7
		c0.2,1.6,0.3,3.3,0.3,5.1c0,5-0.9,10.7-3.8,17.8l-15.1,43.8c14.7-8.6,24.7-24.6,24.7-42.9C110.1,52.9,107.9,44.8,104,37.7L104,37.7
		z M61.4,65.8l-14.9,43.2c4.4,1.3,9.1,2,14,2c5.8,0,11.3-1,16.5-2.8c-0.1-0.2-0.3-0.4-0.4-0.7L61.4,65.8L61.4,65.8z M94,59
		c0-6.1-2.2-10.4-4.1-13.7c-2.5-4.1-4.9-7.5-4.9-11.6c0-4.6,3.5-8.8,8.3-8.8c0.2,0,0.4,0,0.6,0c-8.8-8.1-20.6-13-33.5-13
		c-17.3,0-32.6,8.9-41.4,22.4c1.2,0,2.3,0.1,3.2,0.1c5.2,0,13.2-0.6,13.2-0.6c2.7-0.2,3,3.8,0.3,4.1c0,0-2.7,0.3-5.7,0.5L48.2,92
		L59,59.4l-7.7-21.2c-2.7-0.2-5.2-0.5-5.2-0.5c-2.7-0.2-2.4-4.2,0.3-4.1c0,0,8.2,0.6,13.1,0.6c5.2,0,13.2-0.6,13.2-0.6
		c2.7-0.2,3,3.8,0.3,4.1c0,0-2.7,0.3-5.7,0.5l17.9,53.3l5.1-16.2C92.6,68.3,94,63.2,94,59L94,59z M10.9,61.5
		c0,19.6,11.4,36.6,27.9,44.6L15.2,41.3C12.5,47.5,10.9,54.3,10.9,61.5L10.9,61.5z M60.5,5.6c7.6,0,14.9,1.5,21.8,4.4
		c3.3,1.4,6.5,3.1,9.5,5.2c3,2,5.8,4.3,8.3,6.8c2.5,2.5,4.8,5.3,6.8,8.3c2,3,3.8,6.2,5.2,9.5c2.9,6.9,4.4,14.2,4.4,21.8
		s-1.5,14.9-4.4,21.8c-1.4,3.3-3.1,6.5-5.2,9.5c-2,3-4.3,5.8-6.8,8.3c-2.5,2.5-5.3,4.8-8.3,6.8c-3,2-6.2,3.8-9.5,5.2
		c-6.9,2.9-14.2,4.4-21.8,4.4s-14.9-1.5-21.8-4.4c-3.3-1.4-6.5-3.1-9.5-5.2c-3-2-5.8-4.3-8.3-6.8c-2.5-2.5-4.8-5.3-6.8-8.3
		c-2-3-3.8-6.2-5.2-9.5C6,76.4,4.6,69.1,4.6,61.5S6.1,46.6,9,39.7c1.4-3.3,3.1-6.5,5.2-9.5c2-3,4.3-5.8,6.8-8.3s5.3-4.8,8.3-6.8
		c3-2,6.2-3.8,9.5-5.2C45.6,7,52.9,5.6,60.5,5.6L60.5,5.6z"/>
</g>
</svg>
