<svg width="69" height="68" viewBox="0 0 69 68" fill="none" xmlns="http://www.w3.org/2000/svg">
<g clip-path="url(#clip0_135_2536)">
<path d="M38.4119 46.8063H30.0447C29.9125 46.8063 29.8002 46.7216 29.7605 46.6043C29.701 46.4285 29.6878 46.2591 29.6746 46.0898C29.6614 45.9465 29.6548 45.8162 29.6151 45.699L27.5266 38.8859C24.3938 36.7235 22.5234 33.1997 22.5234 29.435C22.5234 23.0779 27.7711 17.9062 34.2217 17.9062C40.6723 17.9062 45.92 23.0779 45.92 29.435C45.92 33.1997 44.0496 36.73 40.9168 38.8859L38.8283 45.6925C38.7953 45.8097 38.7821 45.94 38.7688 46.0833C38.7556 46.2461 38.7424 46.422 38.6895 46.5913C38.6631 46.7216 38.5441 46.8063 38.4119 46.8063ZM30.2892 46.22H38.174C38.1806 46.1614 38.1872 46.1028 38.1938 46.0442C38.2071 45.8813 38.2203 45.7055 38.2731 45.5296L40.3881 38.6189C40.4079 38.5538 40.4476 38.5017 40.5071 38.4626C43.5341 36.4174 45.3384 33.0434 45.3384 29.435C45.3384 23.4036 40.355 18.4925 34.2349 18.4925C28.1148 18.4925 23.1315 23.4036 23.1315 29.435C23.1315 33.0434 24.9358 36.4174 27.9628 38.4626C28.0157 38.5017 28.0619 38.5538 28.0818 38.6189L30.1967 45.5231C30.2496 45.699 30.2694 45.8813 30.2826 46.0377C30.276 46.1028 30.2826 46.1614 30.2892 46.22Z" fill="#FF6C00"/>
<path d="M41.4114 17.4946C41.3586 17.4946 41.3123 17.4816 41.266 17.4556C41.1206 17.3774 41.0744 17.195 41.1603 17.0582L42.9382 14.0295C43.0175 13.8862 43.2025 13.8406 43.3413 13.9253C43.4867 14.0034 43.533 14.1858 43.4471 14.3226L41.6692 17.3513C41.6097 17.4425 41.5106 17.4946 41.4114 17.4946Z" fill="#FF6C00"/>
<path d="M46.6636 22.6746C46.5579 22.6746 46.4587 22.6225 46.4059 22.5248C46.3266 22.3815 46.3728 22.2056 46.5116 22.1275L49.5849 20.3819C49.7303 20.3037 49.9087 20.3493 49.9881 20.4861C50.0674 20.6294 50.0211 20.8052 49.8823 20.8834L46.809 22.629C46.7628 22.6616 46.7099 22.6746 46.6636 22.6746Z" fill="#FF6C00"/>
<path d="M52.1434 29.7581H48.5943C48.4291 29.7581 48.2969 29.6278 48.2969 29.465C48.2969 29.3021 48.4291 29.1719 48.5943 29.1719H52.1434C52.3087 29.1719 52.4408 29.3021 52.4408 29.465C52.4408 29.6278 52.3087 29.7581 52.1434 29.7581Z" fill="#FF6C00"/>
<path d="M27.5833 17.4981C27.4776 17.4981 27.3784 17.446 27.3256 17.3483L25.5543 14.3261C25.475 14.1828 25.5213 14.0069 25.6601 13.9287C25.8055 13.8506 25.9839 13.8962 26.0632 14.033L27.8345 17.0617C27.9138 17.205 27.8675 17.3809 27.7287 17.459C27.6891 17.4851 27.6362 17.4981 27.5833 17.4981Z" fill="#FF6C00"/>
<path d="M22.3348 22.6788C22.2819 22.6788 22.2357 22.6658 22.1894 22.6397L19.1161 20.8941C18.9773 20.8159 18.9244 20.6336 19.0104 20.4968C19.0897 20.36 19.2747 20.3079 19.4135 20.3926L22.4868 22.1382C22.6322 22.2163 22.6785 22.3987 22.5925 22.5355C22.5397 22.6267 22.4405 22.6788 22.3348 22.6788Z" fill="#FF6C00"/>
<path d="M20.4091 29.7581H16.8599C16.6947 29.7581 16.5625 29.6278 16.5625 29.465C16.5625 29.3021 16.6947 29.1719 16.8599 29.1719H20.4091C20.5743 29.1719 20.7065 29.3021 20.7065 29.465C20.7065 29.6278 20.5743 29.7581 20.4091 29.7581Z" fill="#FF6C00"/>
<path d="M34.2115 14.8209C34.0462 14.8209 33.9141 14.6841 33.9141 14.5213L33.9537 11.5446C33.9537 11.3818 34.0925 11.2515 34.2577 11.258C34.423 11.258 34.5552 11.3948 34.5485 11.5577L34.5089 14.5343C34.5089 14.6906 34.3767 14.8209 34.2115 14.8209Z" fill="#FF6C00"/>
<path d="M39.2791 49.1837H29.1802C29.015 49.1837 28.8828 49.0534 28.8828 48.8905V46.5197C28.8828 46.3568 29.015 46.2266 29.1802 46.2266H39.2725C39.4377 46.2266 39.5699 46.3568 39.5699 46.5197V48.8905C39.5699 49.0469 39.4377 49.1837 39.2791 49.1837ZM29.4776 48.5974H38.9751V46.8128H29.4776V48.5974Z" fill="#FF6C00"/>
<path d="M38.3233 51.5586H30.1412C29.9759 51.5586 29.8438 51.4284 29.8438 51.2655V48.8947C29.8438 48.7318 29.9759 48.6016 30.1412 48.6016H38.3233C38.4886 48.6016 38.6208 48.7318 38.6208 48.8947V51.2655C38.6208 51.4284 38.4886 51.5586 38.3233 51.5586ZM30.4386 50.9724H38.0259V49.1878H30.4386V50.9724Z" fill="#FF6C00"/>
<path d="M36.6726 53.9258H31.7818C31.6166 53.9258 31.4844 53.7956 31.4844 53.6327V51.2619C31.4844 51.099 31.6166 50.9688 31.7818 50.9688H36.6726C36.8378 50.9688 36.97 51.099 36.97 51.2619V53.6327C36.97 53.7956 36.8378 53.9258 36.6726 53.9258ZM32.0792 53.3396H36.3752V51.555H32.0792V53.3396Z" fill="#FF6C00"/>
<path d="M34.7543 36.611H33.7167C33.5713 36.611 33.4457 36.5068 33.4259 36.3635L33.1549 34.6049C32.9104 34.5593 32.6658 34.4941 32.4279 34.4095L31.3043 35.8033C31.2118 35.9141 31.0532 35.9466 30.921 35.875L30.0221 35.3604C29.8966 35.2888 29.8437 35.1324 29.8966 35.0022L30.5575 33.3413C30.3724 33.1784 30.194 33.0026 30.0288 32.8202L28.3434 33.4715C28.2046 33.5236 28.0526 33.4715 27.9799 33.3478L27.4578 32.4619C27.3851 32.3382 27.4115 32.1754 27.5305 32.0842L28.9448 30.9769C28.8655 30.7424 28.7994 30.5014 28.7466 30.2604L26.9621 29.9934C26.8167 29.9738 26.7109 29.8501 26.7109 29.7068V28.6842C26.7109 28.5409 26.8167 28.4171 26.9621 28.3976L28.7466 28.1305C28.7928 27.8895 28.8589 27.6485 28.9382 27.4141L27.5239 26.3068C27.4115 26.2156 27.3785 26.0593 27.4512 25.929L27.9733 25.0432C28.046 24.9194 28.2046 24.8673 28.3368 24.9194L30.0221 25.5708C30.1874 25.3884 30.3658 25.2125 30.5509 25.0497L29.89 23.3888C29.8371 23.252 29.89 23.1022 30.0155 23.0305L30.9144 22.516C31.04 22.4443 31.2052 22.4769 31.2977 22.5876L32.4213 23.9815C32.6592 23.9033 32.9038 23.8382 33.1483 23.7861L33.4193 22.0209C33.4391 21.8777 33.5647 21.7734 33.7101 21.7734H34.7477C34.8931 21.7734 35.0187 21.8777 35.0385 22.0209L35.3095 23.7861C35.554 23.8317 35.7986 23.8968 36.0365 23.975L37.1601 22.5811C37.2526 22.4704 37.4112 22.4378 37.5434 22.5095L38.4423 23.024C38.5678 23.0957 38.6207 23.252 38.5678 23.3823L37.9069 25.0432C38.092 25.206 38.2704 25.3819 38.4356 25.5642L40.121 24.9129C40.2598 24.8608 40.4118 24.9129 40.4845 25.0367L41.0066 25.9225C41.0793 26.0462 41.0529 26.2091 40.9339 26.3003L39.5262 27.4141C39.6055 27.6485 39.6716 27.883 39.7178 28.1305L41.5023 28.3976C41.6477 28.4171 41.7535 28.5409 41.7535 28.6842V29.7068C41.7535 29.8501 41.6477 29.9738 41.5023 29.9934L39.7178 30.2604C39.6716 30.5014 39.6055 30.7424 39.5262 30.9769L40.9405 32.0842C41.0529 32.1754 41.0859 32.3317 41.0132 32.4619L40.4911 33.3478C40.4184 33.4715 40.2598 33.5236 40.1276 33.4715L38.4423 32.8202C38.277 33.0026 38.0986 33.1784 37.9135 33.3413L38.5744 35.0022C38.6273 35.139 38.5744 35.2888 38.4489 35.3604L37.55 35.875C37.4244 35.9466 37.2592 35.9141 37.1667 35.8033L36.0431 34.4095C35.8052 34.4876 35.5673 34.5527 35.3161 34.5983L35.0451 36.357C35.0253 36.5068 34.8997 36.611 34.7543 36.611ZM33.9678 36.0248H34.4966L34.7609 34.3052C34.7808 34.1815 34.8799 34.0773 35.0055 34.0577C35.3624 34.0056 35.7061 33.9144 36.0299 33.7842C36.1489 33.7386 36.2877 33.7711 36.3736 33.8754L37.4707 35.2367L37.9267 34.9761L37.279 33.3543C37.2328 33.237 37.2658 33.1003 37.3716 33.0221C37.6492 32.8006 37.9003 32.5531 38.125 32.2796C38.2043 32.1819 38.3431 32.1428 38.4621 32.1884L40.1078 32.8267L40.3721 32.3773L38.9908 31.296C38.8917 31.2179 38.852 31.0811 38.8983 30.9639C39.0239 30.6382 39.1164 30.2995 39.1759 29.9543C39.1957 29.8305 39.2948 29.7263 39.427 29.7133L41.1719 29.4527V28.9317L39.427 28.6711C39.3015 28.6516 39.1957 28.5539 39.1759 28.4301C39.123 28.0784 39.0305 27.7397 38.8983 27.4206C38.852 27.3033 38.8851 27.1665 38.9908 27.0819L40.3721 26.0006L40.1078 25.5512L38.4621 26.1895C38.3431 26.2351 38.2043 26.2026 38.125 26.0983C37.9003 25.8248 37.6492 25.5773 37.3716 25.3558C37.2724 25.2777 37.2328 25.1409 37.279 25.0236L37.9267 23.4018L37.4707 23.1413L36.3736 24.5026C36.2943 24.6003 36.1555 24.6393 36.0299 24.5937C35.7061 24.47 35.3558 24.3788 35.0055 24.3202C34.8799 24.3006 34.7742 24.2029 34.7609 24.0727L34.4966 22.3531H33.9678L33.7035 24.0727C33.6836 24.1964 33.5845 24.3006 33.4589 24.3202C33.1086 24.3723 32.765 24.4635 32.4345 24.5937C32.3155 24.6393 32.1767 24.6003 32.0974 24.5026L31.0003 23.1413L30.5443 23.4018L31.192 25.0236C31.2382 25.1409 31.2052 25.2777 31.0994 25.3558C30.8219 25.5773 30.5707 25.8248 30.346 26.0983C30.2667 26.196 30.1279 26.2351 30.0089 26.1895L28.3632 25.5512L28.0989 26.0006L29.4802 27.0884C29.5793 27.1665 29.619 27.3033 29.5727 27.4271C29.4471 27.7462 29.3546 28.0849 29.2951 28.4367C29.2753 28.5604 29.1762 28.6646 29.044 28.6777L27.2992 28.9382V29.4593L29.044 29.7198C29.1696 29.7393 29.2753 29.837 29.2951 29.9608C29.348 30.306 29.4405 30.6447 29.5727 30.9704C29.619 31.0876 29.5793 31.2244 29.4802 31.3026L28.0989 32.3838L28.3632 32.8332L30.0089 32.1949C30.1279 32.1493 30.2667 32.1819 30.346 32.2861C30.5707 32.5596 30.8219 32.8072 31.0994 33.0286C31.1986 33.1068 31.2382 33.2436 31.192 33.3608L30.5443 34.9826L31.0003 35.2432L32.0974 33.8819C32.1767 33.7842 32.3155 33.7451 32.4345 33.7907C32.765 33.9144 33.1086 34.0056 33.4589 34.0642C33.5845 34.0838 33.6902 34.1815 33.7035 34.3118L33.9678 36.0248Z" fill="#FF6C00"/>
<path d="M34.2301 32.3519C32.4654 32.3519 31.0312 30.9384 31.0312 29.1994C31.0312 27.4603 32.4654 26.0469 34.2301 26.0469C35.9948 26.0469 37.4289 27.4603 37.4289 29.1994C37.4289 30.9384 35.9948 32.3519 34.2301 32.3519ZM34.2301 26.6396C32.7959 26.6396 31.6261 27.7925 31.6261 29.2059C31.6261 30.6193 32.7959 31.7722 34.2301 31.7722C35.6643 31.7722 36.8341 30.6193 36.8341 29.2059C36.8341 27.786 35.6643 26.6396 34.2301 26.6396Z" fill="#FF6C00"/>
<path d="M37.8885 55.2737H25.2584C25.0931 55.2737 24.9609 55.1434 24.9609 54.9806C24.9609 54.8178 25.0931 54.6875 25.2584 54.6875H37.8885C38.0538 54.6875 38.1859 54.8178 38.1859 54.9806C38.1859 55.1434 38.0538 55.2737 37.8885 55.2737Z" fill="#FF6C00"/>
<path d="M41.9173 56.7346H31.8912C31.7259 56.7346 31.5938 56.6044 31.5938 56.4415C31.5938 56.2787 31.7259 56.1484 31.8912 56.1484H41.9173C42.0825 56.1484 42.2147 56.2787 42.2147 56.4415C42.2147 56.6044 42.0759 56.7346 41.9173 56.7346Z" fill="#FF6C00"/>
<path d="M44.1938 56.7346H42.938C42.7728 56.7346 42.6406 56.6044 42.6406 56.4415C42.6406 56.2787 42.7728 56.1484 42.938 56.1484H44.1938C44.359 56.1484 44.4912 56.2787 44.4912 56.4415C44.4912 56.6044 44.359 56.7346 44.1938 56.7346Z" fill="#FF6C00"/>
<path d="M27.5885 56.6721H22.8365C22.6712 56.6721 22.5391 56.5419 22.5391 56.379C22.5391 56.2162 22.6712 56.0859 22.8365 56.0859H27.5885C27.7537 56.0859 27.8859 56.2162 27.8859 56.379C27.8859 56.5419 27.7471 56.6721 27.5885 56.6721Z" fill="#FF6C00"/>
<path d="M34.5 0C15.4457 0 0 15.2218 0 34C0 52.7782 15.4457 68 34.5 68C53.5543 68 69 52.7782 69 34C69 15.2218 53.5543 0 34.5 0ZM34.5 65.9157C16.5428 65.9157 1.98276 51.5667 1.98276 33.8697C1.98276 16.1728 16.5428 1.82375 34.5 1.82375C52.4572 1.82375 67.0172 16.1728 67.0172 33.8697C67.0172 51.5667 52.4572 65.9157 34.5 65.9157Z" fill="#FF6C00"/>
</g>
<defs>
<clipPath id="clip0_135_2536">
<rect width="69" height="68" fill="white"/>
</clipPath>
</defs>
</svg>
