<svg width="69" height="69" viewBox="0 0 69 69" fill="none" xmlns="http://www.w3.org/2000/svg">
<path d="M35.6432 33.7525V48.4646H41.6245V32.8338L37.0443 35.6824L35.6432 33.7525ZM48.6831 28.4453L43.9245 31.4062V48.458H49.9058V30.4082L48.6831 28.4453ZM19.0938 48.4646H25.0751V35.7551L19.0938 39.3439V48.4646ZM27.3685 48.4646H33.3498V30.7916L27.3685 34.3804V48.4646Z" fill="#FF6C00"/>
<path d="M53.7768 20.5391L43.0435 20.8894L45.0923 24.1807L35.8262 29.9439L32.2573 25.0267L15.2188 35.2445L16.7587 37.8089L31.4443 28.9988L35.0397 33.9557L46.6719 26.7187L48.7208 30.01L53.7768 20.5391Z" fill="#FF6C00"/>
<path d="M34.5 0C15.4457 0 0 15.4457 0 34.5C0 53.5543 15.4457 69 34.5 69C53.5543 69 69 53.5543 69 34.5C69 15.4457 53.5543 0 34.5 0ZM34.5 66.8851C16.5428 66.8851 1.98276 52.325 1.98276 34.3678C1.98276 16.4106 16.5428 1.85057 34.5 1.85057C52.4572 1.85057 67.0172 16.4106 67.0172 34.3678C67.0172 52.325 52.4572 66.8851 34.5 66.8851Z" fill="#FF6C00"/>
</svg>
