<svg width="69" height="69" viewBox="0 0 69 69" fill="none" xmlns="http://www.w3.org/2000/svg">
<path d="M28.2132 12.9304C31.4517 12.7057 34.6968 12.9437 37.8494 13.631C37.8891 13.6376 37.9287 13.6442 37.9684 13.6442C38.2261 13.6442 38.4508 13.4658 38.5103 13.208C38.5764 12.9106 38.3848 12.6132 38.0873 12.5471C34.829 11.8399 31.4781 11.5954 28.1339 11.8267C27.8299 11.8465 27.5985 12.1109 27.6184 12.4215C27.6448 12.719 27.9092 12.9304 28.2132 12.9304Z" fill="#FF6C00"/>
<path d="M22.6227 18.0634C23.0853 17.9445 23.5546 17.8255 24.0304 17.7264C30.4149 16.3451 36.9316 16.9994 42.8799 19.6166C42.9526 19.6497 43.0253 19.6629 43.1046 19.6629C43.3161 19.6629 43.5209 19.5373 43.6135 19.3324C43.739 19.0548 43.6069 18.7244 43.3293 18.5988C37.1695 15.8824 30.4215 15.2083 23.7991 16.6359C23.31 16.7416 22.8209 16.8606 22.3451 16.9861C22.0477 17.0655 21.8692 17.3695 21.9485 17.6603C22.0212 17.9643 22.3253 18.1361 22.6227 18.0634Z" fill="#FF6C00"/>
<path d="M18.2083 24.0845C20.3695 23.0535 22.5439 22.3133 24.8571 21.811C32.1801 20.2314 39.6551 21.725 45.8942 26.0144C46.4296 26.3845 46.9517 26.7679 47.454 27.171C47.5597 27.2503 47.6787 27.2966 47.8043 27.2966C47.9695 27.2966 48.1281 27.2239 48.2339 27.0917C48.4255 26.8538 48.3859 26.5035 48.1479 26.3118C47.6258 25.8954 47.0839 25.4989 46.5287 25.1089C40.0319 20.6411 32.2594 19.088 24.6258 20.7337C22.2267 21.2492 19.9729 22.0225 17.7324 23.0931C17.4548 23.2253 17.3359 23.5558 17.4681 23.8334C17.6002 24.0977 17.9307 24.2167 18.2083 24.0845Z" fill="#FF6C00"/>
<path d="M15.6521 30.235C15.7579 30.235 15.8702 30.202 15.9628 30.1359L16.0553 30.0698C17.8993 28.8867 20.9857 26.9106 25.6783 25.8994C30.5294 24.8419 35.4929 25.3706 40.007 27.4261C40.2846 27.5517 40.6151 27.4327 40.7406 27.1485C40.8662 26.8709 40.7406 26.5405 40.463 26.4149C35.7309 24.2603 30.536 23.7051 25.4403 24.8155C20.5561 25.8663 17.3573 27.9152 15.4406 29.1445L15.3349 29.2172C15.0837 29.389 15.0176 29.7327 15.1895 29.9905C15.3018 30.1491 15.4737 30.235 15.6521 30.235Z" fill="#FF6C00"/>
<path d="M45.6255 29.585C45.3875 29.3999 45.0372 29.4396 44.8456 29.6775C44.6539 29.9154 44.7002 30.2657 44.9381 30.4574C46.6565 31.8123 48.1898 33.4117 49.4985 35.2094C49.6042 35.3614 49.776 35.4407 49.9479 35.4407C50.0602 35.4407 50.1726 35.4077 50.2717 35.335C50.5229 35.1565 50.5757 34.8062 50.3973 34.5617C49.0292 32.6781 47.4232 31.0059 45.6255 29.585Z" fill="#FF6C00"/>
<path d="M48.4693 40.296C48.1918 40.4282 48.0728 40.7587 48.1984 41.0363C48.6544 42.0078 49.0311 43.0323 49.3351 44.0831C49.4012 44.3277 49.6259 44.4863 49.8705 44.4863C49.9234 44.4863 49.9696 44.4797 50.0225 44.4664C50.3199 44.3805 50.4918 44.0765 50.4058 43.7791C50.0886 42.6754 49.6854 41.5914 49.2096 40.567C49.0774 40.2828 48.7469 40.1639 48.4693 40.296Z" fill="#FF6C00"/>
<path d="M14.7762 34.452C15.1 34.4917 15.4239 34.5115 15.7345 34.5115C16.1377 34.5115 16.521 34.4785 16.8581 34.4124C17.5785 34.2537 18.2791 33.7911 19.1713 33.2029C20.7245 32.1784 22.846 30.7839 26.5075 29.9908C27.2676 29.8256 28.021 29.7066 28.748 29.6471C29.0521 29.6207 29.2834 29.3497 29.2503 29.0457C29.2239 28.7417 28.9463 28.5037 28.6489 28.5434C27.8756 28.6095 27.0759 28.7351 26.2696 28.9069C22.4098 29.7397 20.09 31.2664 18.5633 32.2776C17.7702 32.7997 17.1357 33.2161 16.6334 33.3284C16.1641 33.421 15.5495 33.4342 14.915 33.3549C14.6242 33.3218 14.3334 33.5333 14.2937 33.8374C14.2541 34.1348 14.4722 34.4124 14.7762 34.452Z" fill="#FF6C00"/>
<path d="M15.6754 38.6848C18.0481 38.6848 19.3567 37.8322 20.8437 36.8606C21.9475 36.1402 23.1966 35.3273 25.1595 34.6664C25.4504 34.5672 25.6024 34.2566 25.5098 33.9658C25.4173 33.675 25.1001 33.5164 24.8093 33.6155C22.7141 34.3227 21.3989 35.1753 20.2423 35.9353C18.5768 37.0258 17.3805 37.8057 14.6113 37.5215C14.3139 37.4951 14.0363 37.7132 14.0032 38.0172C13.9702 38.3212 14.1949 38.5922 14.4989 38.6253C14.9153 38.6649 15.3052 38.6848 15.6754 38.6848Z" fill="#FF6C00"/>
<path d="M18.762 42.4186C19.9516 42.1608 20.9496 41.5197 22.1062 40.7795C22.8729 40.2838 23.7519 39.7286 24.783 39.2329C25.0605 39.1008 25.1729 38.7703 25.0407 38.4927C24.9085 38.2151 24.5781 38.1028 24.3005 38.235C23.21 38.7571 22.3045 39.3387 21.5114 39.8476C20.4473 40.5283 19.522 41.1166 18.524 41.3347C17.4335 41.5792 16.2637 41.6519 15.0344 41.5528C14.7568 41.5396 14.4594 41.7577 14.4396 42.0617C14.4131 42.3657 14.6444 42.6367 14.9485 42.6565C15.3252 42.6829 15.6953 42.7028 16.0588 42.7028C16.9907 42.7094 17.8962 42.6102 18.762 42.4186Z" fill="#FF6C00"/>
<path d="M41.1334 49.5111C40.8624 49.5838 40.6972 49.8415 40.7236 50.1059C40.7236 50.1191 40.7236 50.1323 40.7236 50.1456C40.6641 51.93 40.1288 53.7013 39.1374 55.4131C38.9854 55.6775 39.0713 56.0145 39.3357 56.1732C39.4216 56.226 39.5207 56.2459 39.6133 56.2459C39.8049 56.2459 39.99 56.1467 40.0957 55.9683C41.173 54.1111 41.7613 52.1812 41.834 50.2249C41.8538 50.1125 41.8472 50.0068 41.8207 49.8944C41.7348 49.6102 41.4308 49.4318 41.1334 49.5111Z" fill="#FF6C00"/>
<path d="M23.7425 44.5544C24.225 44.1579 24.7273 43.7415 25.2891 43.3582C25.5402 43.1863 25.6063 42.8426 25.4345 42.5849C25.2626 42.3337 24.919 42.2676 24.6612 42.4395C24.0598 42.8559 23.5376 43.2788 23.0353 43.6952C21.9382 44.6007 20.9931 45.3806 19.5457 45.6912C18.66 45.8829 17.2721 45.9159 15.8445 45.7837C15.5537 45.7573 15.2695 45.9754 15.2365 46.286C15.2101 46.5901 15.4348 46.861 15.7388 46.8941C16.3601 46.9536 16.9747 46.9866 17.5431 46.9866C18.4023 46.9866 19.1822 46.9205 19.7836 46.7883C21.4954 46.4116 22.5859 45.5061 23.7425 44.5544Z" fill="#FF6C00"/>
<path d="M38.1098 50.4096C37.8256 50.3765 37.5282 50.5946 37.4951 50.8986C37.3299 52.3725 36.7351 53.7538 35.7834 54.9038C35.3802 55.3929 34.9572 55.8621 34.521 56.3182C34.3095 56.5429 34.3161 56.8932 34.5408 57.1047C34.6466 57.2038 34.7854 57.2567 34.9242 57.2567C35.0696 57.2567 35.215 57.1972 35.3273 57.0848C35.7834 56.609 36.2196 56.1199 36.6426 55.611C37.7331 54.2958 38.4072 52.7096 38.5989 51.0242C38.6319 50.7202 38.4138 50.4426 38.1098 50.4096Z" fill="#FF6C00"/>
<path d="M34.5735 50.4256C34.2761 50.3462 33.972 50.5181 33.8927 50.8155C33.7539 51.3376 33.5094 51.8003 33.1789 52.1968C31.8505 53.8095 30.2973 55.1511 28.5789 56.1954C28.3146 56.354 28.2353 56.6977 28.3939 56.9554C28.4996 57.1273 28.6781 57.2264 28.8697 57.2264C28.9689 57.2264 29.068 57.2 29.1539 57.1471C30.9847 56.0434 32.6238 54.6158 34.0315 52.9106C34.4611 52.3951 34.7784 51.7871 34.9634 51.1129C35.0427 50.8155 34.8709 50.5115 34.5735 50.4256Z" fill="#FF6C00"/>
<path d="M27.8151 47.5708L27.4252 47.1808L26.9758 46.8438C23.9157 50.4656 20.1683 50.5647 18.212 50.307C17.9146 50.2673 17.6304 50.4788 17.5907 50.7828C17.5511 51.0869 17.7626 51.3644 18.0666 51.4041C18.4301 51.4504 18.9126 51.4966 19.4809 51.4966C21.6422 51.4966 25.0261 50.8687 27.8151 47.5708Z" fill="#FF6C00"/>
<path d="M31.3909 49.6509C31.576 49.4064 31.5297 49.0561 31.2852 48.8711C31.0406 48.686 30.6903 48.7323 30.5053 48.9768C28.43 51.713 25.7731 53.4578 22.6271 54.1716C22.3297 54.2377 22.138 54.5351 22.2107 54.8392C22.2702 55.0969 22.4949 55.2688 22.7527 55.2688C22.7924 55.2688 22.832 55.2621 22.8783 55.2555C26.2886 54.4889 29.1504 52.6053 31.3909 49.6509Z" fill="#FF6C00"/>
<path d="M54.2324 52.78L45.0456 43.6065C45.8849 42.1392 46.341 40.4737 46.341 38.7289C46.341 36.0984 45.3166 33.62 43.4528 31.7628C39.6128 27.9228 33.3605 27.9228 29.5206 31.7628C25.6806 35.6027 25.6806 41.855 29.5206 45.695C31.4439 47.6182 33.962 48.5766 36.4867 48.5766C38.1588 48.5766 39.8309 48.1404 41.3312 47.2944L50.5312 56.4746C51.0203 56.9636 51.6944 57.2412 52.3818 57.2412C53.0824 57.2412 53.7433 56.9702 54.239 56.4746C54.7347 55.9789 55.0056 55.3246 55.0056 54.624C55.0056 53.93 54.7347 53.2757 54.2324 52.78ZM30.3071 44.9151C26.8967 41.5047 26.8967 35.9596 30.3071 32.5493C32.0122 30.8441 34.2462 29.9915 36.4867 29.9915C38.7272 29.9915 40.9611 30.8441 42.6663 32.5493C44.3186 34.2016 45.224 36.3958 45.224 38.7289C45.224 41.0619 44.312 43.2562 42.6663 44.9085C39.2625 48.3254 33.7174 48.3254 30.3071 44.9151ZM53.4525 55.6947C52.8973 56.2565 51.8927 56.2631 51.3177 55.6947L42.2895 46.6863C42.6993 46.3889 43.0893 46.0717 43.4594 45.7016C43.8163 45.3447 44.1335 44.9613 44.4243 44.5582L53.4525 53.5665C53.7367 53.8507 53.8953 54.234 53.8953 54.6372C53.8953 55.0337 53.7367 55.4105 53.4525 55.6947Z" fill="#FF6C00"/>
<path d="M34.5 0C15.4457 0 0 15.4457 0 34.5C0 53.5543 15.4457 69 34.5 69C53.5543 69 69 53.5543 69 34.5C69 15.4457 53.5543 0 34.5 0ZM34.5 66.8851C16.5428 66.8851 1.98276 52.325 1.98276 34.3678C1.98276 16.4106 16.5428 1.85057 34.5 1.85057C52.4572 1.85057 67.0172 16.4106 67.0172 34.3678C67.0172 52.325 52.4572 66.8851 34.5 66.8851Z" fill="#FF6C00"/>
</svg>
