<svg width="70" height="70" viewBox="0 0 70 70" fill="none" xmlns="http://www.w3.org/2000/svg">
<g clip-path="url(#clip0_135_2578)">
<path d="M36.016 57.2344H33.9844V53.1779H36.016V57.2344Z" fill="#FF6C00"/>
<path d="M24.3221 54.5062L23.4453 54L25.4736 50.4871L26.3504 50.9933L24.3221 54.5062Z" fill="#FF6C00"/>
<path d="M15.9984 46.5565L15.4922 45.6797L19.0051 43.6514L19.5114 44.5282L15.9984 46.5565Z" fill="#FF6C00"/>
<path d="M16.8221 36.0156H12.7656V33.984H16.8221V36.0156Z" fill="#FF6C00"/>
<path d="M19.0055 26.3482L15.4922 24.3203L15.9983 23.4434L19.5117 25.4713L19.0055 26.3482Z" fill="#FF6C00"/>
<path d="M25.4732 19.5133L23.4453 16L24.3222 15.4939L26.35 19.0072L25.4732 19.5133Z" fill="#FF6C00"/>
<path d="M36.016 16.8203H33.9844V12.7638H36.016V16.8203Z" fill="#FF6C00"/>
<path d="M57.2362 36.0156H53.1797V33.984H57.2362V36.0156Z" fill="#FF6C00"/>
<path d="M44.5252 19.514L43.6484 19.0078L45.6767 15.4949L46.5535 16.0011L44.5252 19.514Z" fill="#FF6C00"/>
<path d="M53.9977 46.5513L50.4844 44.5234L50.9905 43.6466L54.5038 45.6744L53.9977 46.5513Z" fill="#FF6C00"/>
<path d="M50.9906 26.3455L50.4844 25.4688L53.9973 23.4405L54.5035 24.3173L50.9906 26.3455Z" fill="#FF6C00"/>
<path d="M45.6763 54.5055L43.6484 50.9922L44.5253 50.4861L46.5532 53.9994L45.6763 54.5055Z" fill="#FF6C00"/>
<path d="M37.4639 32.7711C38.0003 33.3611 38.3355 34.1389 38.3355 35.0038C38.3355 36.4856 37.3566 37.7328 36.0156 38.1619V49.5H33.984V38.1619C32.643 37.7328 31.6641 36.4856 31.6641 35.0038C31.6641 33.1667 33.1593 31.6715 34.9964 31.6715C35.2378 31.6715 35.4725 31.6983 35.7005 31.7519L38.825 26.341L40.5817 27.3535L37.4639 32.7711ZM33.6957 35.0038C33.6957 35.7213 34.279 36.3113 35.0031 36.3113C35.7273 36.3113 36.3106 35.728 36.3106 35.0038C36.3106 34.2797 35.7273 33.6964 35.0031 33.6964C34.279 33.6964 33.6957 34.2864 33.6957 35.0038Z" fill="#FF6C00"/>
<path d="M35 70C15.6695 70 0 54.3305 0 35C0 15.6695 15.6695 0 35 0C54.3305 0 70 15.6695 70 35C70 54.3305 54.3305 70 35 70ZM35 2.14559C16.7826 2.14559 2.01149 16.9167 2.01149 35.1341C2.01149 53.3515 16.7826 68.1226 35 68.1226C53.2174 68.1226 67.9885 53.3515 67.9885 35.1341C67.9885 16.9167 53.2174 2.14559 35 2.14559Z" fill="#FF6C00"/>
</g>
<defs>
<clipPath id="clip0_135_2578">
<rect width="70" height="70" fill="white" transform="matrix(1 0 0 -1 0 70)"/>
</clipPath>
</defs>
</svg>
