<svg width="69" height="68" viewBox="0 0 69 68" fill="none" xmlns="http://www.w3.org/2000/svg">
<path d="M34.9591 19.9387L50.8874 33.0425C51.0476 33.1778 51.1277 33.3582 51.1277 33.5499V51.7735C51.1277 52.1456 50.8302 52.4388 50.4526 52.4388H38.3576C37.98 52.4388 37.6825 52.1456 37.6825 51.7735V42.7632H34.5014H31.3203V51.7735C31.3203 52.1456 31.0228 52.4388 30.6451 52.4388H18.5501C18.1725 52.4388 17.875 52.1456 17.875 51.7735V33.5499C17.875 33.3357 17.978 33.1327 18.1496 33.0199L34.0665 19.9161C34.3297 19.6906 34.7188 19.7131 34.9591 19.9387ZM49.7775 33.8657L34.5014 21.2919L19.2252 33.8657V51.1194H29.97V42.1091C29.97 41.737 30.2675 41.4438 30.6451 41.4438H34.5014H38.3576C38.7352 41.4438 39.0327 41.737 39.0327 42.1091V51.1194H49.7775V33.8657Z" fill="#FF6C00"/>
<path d="M55.0081 34.5191C55.2941 34.7559 55.7175 34.7333 55.9578 34.4514C56.1981 34.1695 56.1752 33.7522 55.8892 33.5154C53.6464 31.6096 35.418 15.5851 34.5255 15.5625H34.514H34.5026H34.4911H34.4797C33.3926 15.5963 15.4275 31.5532 13.116 33.5154C12.83 33.7522 12.8071 34.1695 13.0474 34.4514C13.2877 34.7333 13.711 34.7559 13.9971 34.5191L34.5026 17.0962L55.0081 34.5191Z" fill="#FF6C00"/>
<path d="M23.1428 20.7291H20.3737L20.3966 27.3261L23.1428 24.9918V20.7291ZM19.6986 19.3984H23.818H24.4931V20.0638V25.2963V25.6008L24.2528 25.8037L20.1677 29.277L19.0578 30.2243V28.7809L19.0234 20.0751V19.4097H19.6986V19.3984Z" fill="#FF6C00"/>
<path d="M34.5 0C15.4478 0 0 15.2239 0 34C0 52.7761 15.4478 68 34.5 68C53.5522 68 69 52.7761 69 34C69 15.2239 53.5522 0 34.5 0ZM34.5 65.9138C16.5463 65.9138 1.9796 51.5695 1.9796 33.8647C1.9796 16.1599 16.5463 1.82687 34.5 1.82687C52.4537 1.82687 67.0204 16.1711 67.0204 33.876C67.0204 51.5808 52.4537 65.9138 34.5 65.9138Z" fill="#FF6C00"/>
</svg>
