<svg width="69" height="70" viewBox="0 0 69 70" fill="none" xmlns="http://www.w3.org/2000/svg">
<path d="M44.9527 35.0738L47.6823 25.7769C47.907 25.0192 47.755 24.2219 47.2725 23.596C46.79 22.97 46.0498 22.6077 45.2633 22.634L40.0487 22.7526C41.04 21.2174 41.4564 19.5438 41.7538 18.3249C42.1305 16.7963 41.2317 14.9053 39.9297 14.5034C39.3282 14.3189 37.8147 14.2003 36.7639 17.0532C35.7857 19.702 32.382 22.4956 30.4389 23.9254V23.708C30.4389 22.6735 29.5995 21.8368 28.5619 21.8368H24.5567C23.5191 21.8368 22.6797 22.6735 22.6797 23.708V35.5679C22.6797 36.6024 23.5191 37.4392 24.5567 37.4392H28.5619C29.5995 37.4392 30.4389 36.6024 30.4389 35.5679V35.1397L30.9214 35.8842C31.417 36.6485 32.263 37.1097 33.1751 37.1097H42.2297C43.4788 37.1097 44.6024 36.2729 44.9527 35.0738ZM28.6676 35.5679C28.6676 35.6141 28.628 35.6536 28.5817 35.6536H24.5765C24.5303 35.6536 24.4906 35.6141 24.4906 35.5679V23.708C24.4906 23.6619 24.5303 23.6223 24.5765 23.6223H28.5817C28.628 23.6223 28.6676 23.6619 28.6676 23.708V35.5679ZM32.4415 34.9156L31.7012 33.7692C31.4038 33.308 30.961 32.9851 30.4587 32.8072V26.1195C31.959 25.1048 37.0811 21.4151 38.4558 17.666C38.9317 16.3812 39.3613 16.1901 39.4142 16.2099C39.7512 16.3087 40.1941 17.218 40.0222 17.8966C39.6653 19.3462 39.1168 21.5403 37.5041 23.0359C37.2331 23.2863 37.1472 23.6816 37.286 24.0243C37.4248 24.3669 37.7817 24.5975 38.132 24.5777L45.303 24.4196C45.5078 24.413 45.7193 24.5118 45.8515 24.6831C45.9837 24.8545 46.0234 25.0719 45.9639 25.2761L45.7193 26.1129H43.6308C43.1351 26.1129 42.7386 26.5148 42.7386 27.0024C42.7386 27.4966 43.1418 27.8919 43.6308 27.8919H45.1972L44.8866 28.9461H43.0162C42.5205 28.9461 42.1239 29.3481 42.1239 29.8356C42.1239 30.3298 42.5271 30.7251 43.0162 30.7251H44.3645L43.9745 32.0429H42.1107C41.615 32.0429 41.2185 32.4448 41.2185 32.9324C41.2185 33.4266 41.6216 33.8219 42.1107 33.8219H43.4524L43.2343 34.5533C43.1021 34.9947 42.6923 35.3044 42.2297 35.3044H33.1949C32.8909 35.3241 32.6067 35.1726 32.4415 34.9156Z" fill="#FF6C00"/>
<path d="M26.5797 32.4062C26.0841 32.4062 25.6875 32.8082 25.6875 33.2957V34.3368C25.6875 34.8309 26.0907 35.2263 26.5797 35.2263C27.0754 35.2263 27.472 34.8244 27.472 34.3368V33.2957C27.472 32.8082 27.0688 32.4062 26.5797 32.4062Z" fill="#FF6C00"/>
<path d="M46.033 44.3982C51.3732 40.7283 54.8827 34.6006 54.8827 27.656C54.8827 16.4483 45.7356 7.33594 34.4999 7.33594C23.2577 7.33594 14.1172 16.4549 14.1172 27.656C14.1172 34.594 17.6267 40.7283 22.9735 44.3982L16.3775 56.3175C16.2057 56.6272 16.2321 57.0027 16.4436 57.286C16.6551 57.5694 17.012 57.6946 17.3557 57.6221L23.912 56.1659L26.1724 62.4715C26.2913 62.8009 26.5953 63.0315 26.9456 63.0579C26.9721 63.0579 26.9919 63.0579 27.0183 63.0579C27.3422 63.0579 27.6462 62.88 27.8048 62.5967L34.4999 50.4929L41.2017 62.6032C41.3603 62.8866 41.6643 63.0645 41.9882 63.0645C42.0146 63.0645 42.0344 63.0645 42.0609 63.0645C42.4112 63.0381 42.7152 62.8075 42.8341 62.4781L45.0945 56.1725L51.6508 57.6287C51.9945 57.7077 52.3514 57.576 52.5629 57.2926C52.7744 57.0093 52.8008 56.6337 52.629 56.3241L46.033 44.3982ZM15.9083 27.6626C15.9083 17.4432 24.2491 9.12811 34.4999 9.12811C44.7508 9.12811 53.0916 17.4432 53.0916 27.6626C53.0916 37.8819 44.7508 46.197 34.4999 46.197C24.2491 46.197 15.9083 37.8819 15.9083 27.6626ZM27.1902 60.0138L25.3264 54.8284C25.1744 54.4067 24.7249 54.1629 24.2887 54.2552L18.9022 55.4478L24.4936 45.3405C27.2761 46.9152 30.4683 47.8376 33.8655 47.943L27.1902 60.0138ZM44.7045 54.2552C44.2683 54.1629 43.8189 54.4001 43.6669 54.8284L41.8031 60.0138L35.5178 48.6481L35.9275 47.9101C39.0272 47.6927 41.9419 46.7966 44.5063 45.3405L50.0976 55.4543L44.7045 54.2552Z" fill="#FF6C00"/>
<path d="M39.6465 68.7578C39.2037 68.7578 38.9062 69.0477 38.9062 69.4233C38.9062 69.7461 39.164 70.0031 39.5606 70.0031C40.0034 70.0031 40.3074 69.7264 40.3074 69.3179C40.3008 69.0016 40.0364 68.7578 39.6465 68.7578Z" fill="#FF6C00"/>
<path d="M34.5 0C15.4457 0 0 15.3982 0 34.3938C0 53.3895 15.4457 68.7876 34.5 68.7876C53.5543 68.7876 69 53.3895 69 34.3938C69 15.3982 53.5543 0 34.5 0ZM34.5 66.6792C16.5428 66.6792 1.98276 52.164 1.98276 34.262C1.98276 16.3601 16.5428 1.84488 34.5 1.84488C52.4572 1.84488 67.0172 16.3601 67.0172 34.262C67.0172 52.164 52.4572 66.6792 34.5 66.6792Z" fill="#FF6C00"/>
</svg>
